<?xml version="1.0" standalone="no"?>
<!DOCTYPE svg PUBLIC "-//W3C//DTD SVG 20010904//EN"
 "http://www.w3.org/TR/2001/REC-SVG-20010904/DTD/svg10.dtd">
<svg version="1.0" xmlns="http://www.w3.org/2000/svg"
 width="2560.000000pt" height="1440.000000pt" viewBox="0 0 2560.000000 1440.000000"
 preserveAspectRatio="xMidYMid meet">

<g transform="translate(0.000000,1440.000000) scale(0.100000,-0.100000)"
fill="#000000" stroke="none">
<path d="M12660 7200 l0 -4740 140 0 140 0 0 1330 0 1330 5610 0 5610 0 0 140
0 140 -5610 0 -5610 0 0 1800 0 1800 5610 0 5610 0 0 140 0 140 -5610 0 -5610
0 0 1330 0 1330 -140 0 -140 0 0 -4740z"/>
<path d="M14126 8250 c-180 -21 -355 -88 -487 -188 -283 -215 -419 -625 -368
-1104 46 -423 250 -720 585 -850 278 -108 631 -99 879 22 148 72 245 169 326
323 31 60 79 176 79 193 0 10 -316 165 -333 162 -15 -2 -25 -14 -33 -43 -27
-92 -64 -157 -126 -219 -101 -100 -208 -139 -383 -140 -321 -1 -513 196 -555
569 -19 172 -4 392 35 525 44 146 144 274 258 330 193 94 468 74 614 -46 42
-35 106 -120 134 -179 8 -16 21 -31 30 -33 14 -2 297 162 322 187 13 13 -33
109 -88 186 -101 143 -270 243 -479 286 -109 22 -302 31 -410 19z"/>
<path d="M15977 8188 c-8 -24 -175 -507 -371 -1074 -196 -567 -356 -1036 -356
-1043 0 -8 56 -11 217 -9 l217 3 80 248 80 247 416 0 416 0 80 -247 80 -248
222 -3 c169 -2 222 1 222 10 0 9 -610 1783 -731 2126 l-11 32 -273 0 -273 0
-15 -42z m437 -832 c75 -228 136 -419 136 -425 0 -8 -89 -11 -294 -11 l-294 0
13 43 c23 77 257 792 262 800 2 4 12 7 23 7 15 0 40 -67 154 -414z"/>
<path d="M17602 7148 l3 -1083 193 -3 192 -2 0 714 c0 653 1 714 16 720 9 4
19 5 21 3 2 -3 109 -307 238 -678 129 -371 242 -693 251 -716 l16 -43 173 0
c96 0 176 4 179 9 3 5 116 324 251 710 134 387 247 706 250 711 3 5 12 7 20 4
13 -5 15 -104 17 -718 l3 -711 200 0 200 0 3 1083 2 1082 -275 0 c-151 0 -275
-2 -275 -4 0 -3 -410 -1204 -505 -1478 -27 -78 -42 -108 -54 -108 -12 0 -65
142 -230 623 -117 342 -241 700 -273 795 l-60 172 -279 0 -279 0 2 -1082z"/>
<path d="M20881 8203 c-29 -74 -731 -2118 -731 -2129 0 -11 40 -14 214 -14
l214 0 84 250 83 250 415 0 415 -1 81 -247 80 -247 222 -3 c141 -1 222 1 222
8 0 5 -166 491 -370 1081 -203 589 -370 1073 -370 1075 0 2 -123 4 -274 4
l-274 0 -11 -27z m432 -850 c75 -230 137 -421 137 -425 0 -5 -133 -8 -296 -8
-232 0 -295 3 -291 13 2 6 64 198 138 424 119 366 136 413 155 413 18 0 35
-46 157 -417z"/>
<path d="M22230 8227 c0 -2 165 -293 368 -648 l367 -644 5 -435 5 -435 213 -3
212 -2 0 424 0 425 371 653 c204 359 373 656 376 661 2 4 -97 7 -220 7 l-225
0 -239 -422 c-205 -361 -243 -423 -264 -426 -22 -2 -46 37 -269 423 l-245 425
-227 0 c-126 0 -228 -1 -228 -3z"/>
<path d="M6428 8076 c-92 -25 -147 -91 -156 -187 -8 -87 31 -162 108 -207 83
-50 223 -30 286 40 77 83 73 230 -8 305 -52 49 -153 71 -230 49z"/>
<path d="M1697 7953 c-4 -3 -7 -444 -7 -980 l0 -973 195 0 195 0 0 365 0 365
228 0 c186 0 244 4 322 20 189 39 337 141 408 281 127 252 81 588 -103 757
-109 99 -226 145 -418 162 -117 11 -810 13 -820 3z m818 -318 c130 -34 195
-120 203 -270 6 -114 -16 -184 -78 -245 -68 -69 -119 -80 -363 -80 l-197 0 0
305 0 305 188 0 c136 0 204 -4 247 -15z"/>
<path d="M10448 7792 l-158 -26 0 -143 0 -143 -115 0 -115 0 0 -150 0 -150
115 0 115 0 0 -397 c0 -442 5 -489 61 -593 54 -102 147 -171 269 -201 72 -17
250 -17 320 0 60 15 144 51 174 73 18 14 17 19 -29 152 -54 155 -40 145 -150
106 -109 -40 -210 -14 -253 63 -15 29 -17 74 -20 414 l-3 383 208 2 208 3 0
145 0 145 -207 3 -208 2 0 170 0 170 -27 -1 c-16 -1 -99 -13 -185 -27z"/>
<path d="M11975 7686 c-91 -42 -135 -116 -135 -225 0 -83 23 -135 80 -184 58
-49 97 -60 194 -55 69 4 88 9 130 35 87 55 127 143 112 250 -12 89 -81 169
-167 193 -63 18 -159 12 -214 -14z"/>
<path d="M5054 7486 c-257 -59 -430 -227 -506 -492 -20 -69 -23 -102 -23 -254
0 -152 3 -186 23 -260 54 -197 167 -340 334 -424 113 -56 215 -78 358 -78 416
0 677 236 721 651 13 123 1 274 -30 382 -66 229 -225 393 -449 461 -88 27
-337 34 -428 14z m316 -317 c57 -17 134 -88 163 -152 35 -74 48 -150 48 -277
0 -128 -13 -203 -48 -279 -54 -114 -150 -171 -287 -171 -99 0 -163 21 -221 72
-92 81 -132 216 -122 417 10 232 86 358 239 397 60 15 164 12 228 -7z"/>
<path d="M7574 7490 c-65 -13 -195 -67 -249 -104 -152 -102 -252 -269 -285
-479 -18 -112 -8 -340 20 -437 69 -241 221 -397 451 -463 147 -43 368 -41 512
3 77 24 168 78 225 133 45 44 122 151 122 171 0 11 -238 166 -256 166 -6 0
-26 -23 -44 -51 -63 -98 -172 -144 -324 -137 -196 9 -301 105 -335 311 l-8 47
472 0 c361 0 475 3 488 13 25 17 33 175 17 302 -22 180 -73 289 -179 387 -113
105 -249 149 -455 147 -72 -1 -149 -5 -172 -9z m312 -305 c29 -13 63 -38 79
-58 31 -41 65 -142 65 -193 l0 -34 -309 0 -309 0 10 43 c22 102 85 198 153
235 84 45 220 48 311 7z"/>
<path d="M9146 7479 c-318 -78 -516 -361 -516 -739 0 -398 205 -677 547 -747
108 -22 300 -22 382 0 154 41 301 160 368 299 54 110 61 97 -86 177 -72 39
-136 71 -144 71 -7 0 -24 -25 -36 -55 -27 -66 -92 -134 -158 -166 -63 -30
-191 -38 -258 -15 -166 56 -249 234 -231 491 11 159 44 244 124 317 74 66 190
92 303 69 83 -17 143 -60 191 -136 29 -45 47 -64 57 -60 8 3 69 45 137 93
l122 87 -35 67 c-66 125 -198 219 -358 253 -102 21 -309 19 -409 -6z"/>
<path d="M4057 7471 c-32 -11 -76 -32 -98 -47 -41 -28 -97 -98 -120 -147 -23
-50 -34 -24 -39 89 l-5 109 -177 3 -178 2 0 -740 0 -740 185 0 185 0 0 388 c0
478 11 555 90 657 75 96 235 131 370 81 30 -11 41 14 70 165 17 85 30 155 30
156 0 2 -17 10 -37 19 -60 26 -205 28 -276 5z"/>
<path d="M6315 7468 c-3 -7 -6 -386 -7 -843 -3 -793 -4 -831 -22 -861 -38 -63
-120 -86 -216 -60 -33 9 -59 11 -64 5 -10 -9 -56 -280 -50 -290 7 -12 138 -38
219 -43 210 -13 380 73 451 228 53 117 54 124 54 1034 l0 842 -180 0 c-135 0
-182 -3 -185 -12z"/>
<path d="M11995 6529 c-45 -12 -115 -77 -136 -123 -22 -48 -25 -140 -7 -200
18 -59 84 -121 149 -140 138 -41 273 7 332 118 31 58 30 174 0 233 -27 50 -81
96 -132 112 -44 13 -162 13 -206 0z"/>
</g>
</svg>
