<?xml version="1.0" standalone="no"?>
<!DOCTYPE svg PUBLIC "-//W3C//DTD SVG 20010904//EN"
 "http://www.w3.org/TR/2001/REC-SVG-20010904/DTD/svg10.dtd">
<svg version="1.0" xmlns="http://www.w3.org/2000/svg"
 width="500.000000pt" height="500.000000pt" viewBox="0 0 500.000000 500.000000"
 preserveAspectRatio="xMidYMid meet">

<rect width="100%" height="100%" fill="white" rx="60"/>

<g transform="translate(0.000000,500.000000) scale(0.100000,-0.100000)"
fill="#000000" stroke="none">
<path d="M2590 2500 l0 -1960 95 0 95 0 0 290 0 290 715 0 715 0 0 95 0 95
-715 0 -715 0 0 1190 0 1190 720 0 720 0 0 95 0 95 -720 0 -720 0 0 290 0 290
-95 0 -95 0 0 -1960z"/>
<path d="M3422 3150 c-142 -38 -257 -108 -332 -202 -53 -67 -114 -193 -137
-283 -25 -103 -25 -401 1 -505 50 -202 173 -363 337 -439 265 -124 607 -85
778 89 58 58 126 176 137 235 5 29 3 31 -99 83 -57 28 -111 52 -119 52 -9 0
-21 -21 -31 -52 -50 -155 -206 -245 -385 -223 -242 30 -353 210 -339 550 8
193 45 296 138 379 71 64 157 90 277 84 61 -3 103 -11 139 -27 57 -25 130 -96
153 -148 9 -21 22 -33 34 -33 31 0 216 119 216 139 0 25 -70 129 -116 172 -56
53 -113 85 -201 116 -68 23 -97 27 -228 30 -125 3 -162 0 -223 -17z"/>
<path d="M910 2390 l0 -670 130 0 130 0 0 250 0 250 158 0 c184 0 253 10 339
51 77 37 153 117 184 197 33 83 33 261 0 344 -27 71 -102 154 -168 191 -92 50
-150 57 -475 57 l-298 0 0 -670z m607 437 c18 -9 45 -34 60 -54 24 -32 28 -47
31 -118 3 -63 0 -90 -13 -116 -45 -89 -98 -109 -292 -109 l-133 0 0 211 0 211
158 -4 c125 -3 163 -7 189 -21z"/>
<path d="M2190 2978 c-63 -32 -92 -85 -87 -159 4 -68 33 -114 91 -140 92 -42
200 -11 243 71 82 155 -86 309 -247 228z"/>
<path d="M2194 2181 c-58 -26 -87 -72 -91 -140 -7 -109 60 -176 177 -176 81 0
129 27 159 89 75 153 -84 300 -245 227z"/>
</g>
</svg>
